<?xml version="1.0" encoding="utf-8"?>
<!-- Generator: Adobe Illustrator 25.4.1, SVG Export Plug-In . SVG Version: 6.00 Build 0)  -->
<svg version="1.1" id="Calque_1" xmlns="http://www.w3.org/2000/svg" xmlns:xlink="http://www.w3.org/1999/xlink" x="0px" y="0px"
	 viewBox="0 0 713.5 18.9" style="enable-background:new 0 0 713.5 18.9;" xml:space="preserve">
<style type="text/css">
	.st0{fill:#141414;}
</style>
<rect class="st0" width="18.9" height="18.9"/>
<path class="st0" d="M86.8,18.9L86.8,18.9c-4.2,0-7.6-3.4-7.6-7.6V7.6c0-4.2,3.4-7.6,7.6-7.6l0,0c4.2,0,7.6,3.4,7.6,7.6v3.7
	C94.5,15.5,91,18.9,86.8,18.9z"/>
<path class="st0" d="M705.9,18.9L705.9,18.9c-4.2,0-7.6-3.4-7.6-7.6V7.6c0-4.2,3.4-7.6,7.6-7.6l0,0c4.2,0,7.6,3.4,7.6,7.6v3.7
	C713.6,15.5,710.1,18.9,705.9,18.9z"/>
<rect x="34.1" class="st0" width="29.9" height="18.9"/>
<rect x="526.1" class="st0" width="157" height="18.9"/>
</svg>
