<?xml version="1.0" encoding="utf-8"?>
<!-- Generator: Adobe Illustrator 25.4.1, SVG Export Plug-In . SVG Version: 6.00 Build 0)  -->
<svg version="1.1" id="Calque_1" xmlns="http://www.w3.org/2000/svg" xmlns:xlink="http://www.w3.org/1999/xlink" x="0px" y="0px"
	 viewBox="0 0 100 100" style="enable-background:new 0 0 100 100;" xml:space="preserve">
<style type="text/css">
	.st0{fill:#FFFFFF;}
</style>
<g>
	<g>
		<path class="st0" d="M84.7,18.2c-6.4-2.9-13.2-5.1-20.4-6.3c-0.1,0-0.3,0-0.3,0.2c-0.9,1.6-1.9,3.6-2.5,5.2
			c-7.7-1.2-15.3-1.2-22.9,0c-0.7-1.6-1.7-3.6-2.6-5.2c-0.1-0.1-0.2-0.2-0.3-0.2c-7.1,1.2-14,3.4-20.4,6.3c-0.1,0-0.1,0.1-0.1,0.1
			C2.2,37.7-1.3,56.6,0.4,75.2c0,0.1,0.1,0.2,0.1,0.2c8.6,6.3,16.8,10.1,25,12.6c0.1,0,0.3,0,0.4-0.1c1.9-2.6,3.6-5.4,5.1-8.3
			c0.1-0.2,0-0.4-0.2-0.4c-2.7-1-5.3-2.3-7.8-3.7c-0.2-0.1-0.2-0.4,0-0.5c0.5-0.4,1-0.8,1.5-1.2c0.1-0.1,0.2-0.1,0.3,0
			c16.4,7.5,34.1,7.5,50.3,0c0.1-0.1,0.2,0,0.3,0c0.5,0.4,1,0.8,1.6,1.2c0.2,0.1,0.2,0.4,0,0.5c-2.5,1.5-5.1,2.7-7.8,3.7
			c-0.2,0.1-0.3,0.3-0.2,0.4c1.5,2.9,3.2,5.7,5.1,8.3c0.1,0.1,0.2,0.2,0.4,0.1c8.2-2.5,16.5-6.3,25-12.6c0.1-0.1,0.1-0.1,0.1-0.2
			c2.1-21.6-3.5-40.3-14.8-56.9C84.8,18.3,84.7,18.2,84.7,18.2z M33.4,63.9c-4.9,0-9-4.5-9-10.1s4-10.1,9-10.1c5,0,9.1,4.6,9,10.1
			C42.4,59.4,38.4,63.9,33.4,63.9z M66.6,63.9c-4.9,0-9-4.5-9-10.1s4-10.1,9-10.1c5,0,9.1,4.6,9,10.1C75.6,59.4,71.7,63.9,66.6,63.9
			z"/>
	</g>
</g>
</svg>
