<?xml version="1.0" encoding="utf-8"?>
<!-- Generator: Adobe Illustrator 25.4.1, SVG Export Plug-In . SVG Version: 6.00 Build 0)  -->
<svg version="1.1" id="Calque_1" xmlns="http://www.w3.org/2000/svg" xmlns:xlink="http://www.w3.org/1999/xlink" x="0px" y="0px"
	 viewBox="0 0 100 100" style="enable-background:new 0 0 100 100;" xml:space="preserve">
<style type="text/css">
	.st0{fill:#FFFFFF;}
</style>
<g>
	<path class="st0" d="M6,64.4c-3.2,0-5.7-2.6-5.7-5.7c0-22.3,18.2-40.5,40.5-40.5c3.2,0,5.7,2.6,5.7,5.7s-2.6,5.7-5.7,5.7
		c-16,0-29.1,13-29.1,29.1C11.7,61.8,9.2,64.4,6,64.4z"/>
</g>
<g>
	<path class="st0" d="M76.3,46.2c-3.2,0-5.7-2.6-5.7-5.7c0-16-13-29.1-29.1-29.1c-3.2,0-5.7-2.6-5.7-5.7S38.3,0,41.5,0
		C63.8,0,82,18.2,82,40.5C82,43.6,79.4,46.2,76.3,46.2z"/>
</g>
<g>
	<path class="st0" d="M59.2,81.8c-3.2,0-5.7-2.6-5.7-5.7s2.6-5.7,5.7-5.7c16,0,29.1-13,29.1-29.1c0-3.2,2.6-5.7,5.7-5.7
		c3.2,0,5.7,2.6,5.7,5.7C99.7,63.6,81.6,81.8,59.2,81.8z"/>
</g>
<g>
	<path class="st0" d="M58.5,99.9c-22.3,0-40.5-18.2-40.5-40.5c0-3.2,2.6-5.7,5.7-5.7s5.7,2.6,5.7,5.7c0,16,13,29.1,29.1,29.1
		c3.2,0,5.7,2.6,5.7,5.7S61.7,99.9,58.5,99.9z"/>
</g>
</svg>
