<?xml version="1.0" encoding="utf-8"?>
<!-- Generator: Adobe Illustrator 25.4.1, SVG Export Plug-In . SVG Version: 6.00 Build 0)  -->
<svg version="1.1" id="Calque_1" xmlns="http://www.w3.org/2000/svg" xmlns:xlink="http://www.w3.org/1999/xlink" x="0px" y="0px"
	 viewBox="0 0 100 100" style="enable-background:new 0 0 100 100;" xml:space="preserve">
<style type="text/css">
	.st0{fill-rule:evenodd;clip-rule:evenodd;fill:#FFFFFF;}
</style>
<path class="st0" d="M49.8,0C22.3,0,0,22.3,0,49.8c0,22,14.4,40.7,33.9,47.4c2.4,0.3,3.4-1.2,3.4-2.4s0-4.3,0-8.6
	c-13.8,3.1-16.8-6.7-16.8-6.7c-2.1-5.8-5.5-7.3-5.5-7.3c-4.6-3.1,0.3-3.1,0.3-3.1c4.9,0.3,7.6,5.2,7.6,5.2
	c4.6,7.6,11.6,5.5,14.4,4.3c0.3-3.4,1.8-5.5,3.1-6.7c-11-1.2-22.6-5.5-22.6-24.8c0-5.5,1.8-9.8,5.2-13.4c-0.3-0.9-2.1-6.1,0.6-12.8
	c0,0,4.3-1.2,13.8,5.2c4-1.2,8.3-1.5,12.5-1.5s8.6,0.6,12.5,1.5c9.5-6.4,13.8-5.2,13.8-5.2c2.8,6.7,0.9,11.9,0.6,13.1
	c3.1,3.4,5.2,7.9,5.2,13.4c0,19.3-11.6,23.2-22.6,24.5c1.8,1.5,3.4,4.6,3.4,9.2c0,6.7,0,11.9,0,13.8c0,1.2,0.9,2.8,3.4,2.4
	C85.9,90.5,100,71.8,100,49.8C99.7,22.3,77.4,0,49.8,0z"/>
</svg>
