<?xml version="1.0" encoding="utf-8"?>
<!-- Generator: Adobe Illustrator 25.4.1, SVG Export Plug-In . SVG Version: 6.00 Build 0)  -->
<svg version="1.1" id="Calque_1" xmlns="http://www.w3.org/2000/svg" xmlns:xlink="http://www.w3.org/1999/xlink" x="0px" y="0px"
	 viewBox="0 0 100 100" style="enable-background:new 0 0 100 100;" xml:space="preserve">
<style type="text/css">
	.st0{fill:#FFFFFF;}
</style>
<path class="st0" d="M50,0C22.4,0,0,22.4,0,50s22.4,50,50,50s50-22.4,50-50S77.6,0,50,0z M73.8,32.5c-0.1,2-1.4,9.1-2.5,16.8
	L67.9,72c0,0-0.3,3.3-2.9,3.9c-2.6,0.6-6.5-2-7.2-2.6c-0.6-0.4-10.8-6.9-14.5-10.1c-1-0.9-2.2-2.6,0.1-4.6l15.2-14.5
	c1.7-1.7,3.5-5.8-3.8-0.9L34.7,56.9c0,0-2.3,1.4-6.6,0.1l-9.4-2.9c0,0-3.5-2.2,2.5-4.3c14.5-6.8,32.2-13.7,48-20.2
	C69.1,29.6,74.3,27.6,73.8,32.5z"/>
</svg>
