<?xml version="1.0" encoding="utf-8"?>
<!-- Generator: Adobe Illustrator 25.4.1, SVG Export Plug-In . SVG Version: 6.00 Build 0)  -->
<svg version="1.1" id="Calque_1" xmlns="http://www.w3.org/2000/svg" xmlns:xlink="http://www.w3.org/1999/xlink" x="0px" y="0px"
	 viewBox="0 0 100 100" style="enable-background:new 0 0 100 100;" xml:space="preserve">
<style type="text/css">
	.st0{fill:#FFFFFF;}
</style>
<g id="layer1" transform="translate(-539.17946,-568.85777)">
	<path id="path3611" class="st0" d="M570.9,659c37.3,0,57.7-30.9,57.7-57.7c0-0.9,0-1.8-0.1-2.6c4-2.9,7.4-6.4,10.1-10.5
		c-3.6,1.6-7.5,2.7-11.6,3.2c4.2-2.5,7.4-6.5,8.9-11.2c-3.9,2.3-8.3,4-12.9,4.9c-3.7-3.9-9-6.4-14.8-6.4c-11.2,0-20.3,9.1-20.3,20.3
		c0,1.6,0.2,3.1,0.5,4.6c-16.8-0.8-31.8-8.9-41.8-21.2c-1.7,3-2.7,6.5-2.7,10.2c0,7,3.6,13.2,9,16.9c-3.3-0.1-6.5-1-9.2-2.5
		c0,0.1,0,0.2,0,0.3c0,9.8,7,18,16.3,19.9c-1.7,0.5-3.5,0.7-5.3,0.7c-1.3,0-2.6-0.1-3.8-0.4c2.6,8.1,10.1,13.9,18.9,14.1
		c-6.9,5.4-15.7,8.7-25.2,8.7c-1.6,0-3.2-0.1-4.8-0.3C548.7,655.7,559.4,659,570.9,659"/>
</g>
</svg>
