<?xml version="1.0" encoding="utf-8"?>
<!-- Generator: Adobe Illustrator 26.0.1, SVG Export Plug-In . SVG Version: 6.00 Build 0)  -->
<svg version="1.1" id="Calque_1" xmlns="http://www.w3.org/2000/svg" xmlns:xlink="http://www.w3.org/1999/xlink" x="0px" y="0px"
	 viewBox="0 0 517 70" style="enable-background:new 0 0 517 70;" xml:space="preserve">
<style type="text/css">
	.st0{fill:#FFFFFF;}
</style>
<g>
	<rect x="33.3" y="28" transform="matrix(0.7071 -0.7071 0.7071 0.7071 -11.8752 36.209)" class="st0" width="9" height="9"/>
	<path class="st0" d="M414,24.7l9-6.3L411.3,4.8l-0.8-0.9h-28.9c-0.5,0-1.1,0-1.7-0.1c-0.6-0.1-1.2-0.3-1.6-0.5
		c-0.5-0.3-1-0.7-1.3-1.1c-0.4-0.5-0.6-1-0.7-1.6l-1.6-0.1c-0.4,1.9-0.7,3.8-0.7,5.8c0,0.9,0.1,1.9,0.4,2.8c0.2,0.9,0.7,1.8,1.3,2.5
		c0.4,0.5,1,0.9,1.7,1.1c0.6,0.3,1.3,0.3,2,0.3h14.2l-6.4,3.8c-1.3,0.8-2.7,1.9-3.6,3.2c-0.4,0.7-0.7,1.5-0.9,2.3
		c-0.1,0.7-0.1,1.6-0.1,2.4l-0.1,17c-0.2,1.9-0.8,3.9-2,5.5c-0.7,0.8-1.5,1.6-2.4,2.1l0.7,1.8c4.5-1.1,9.1-3.6,11.7-7.3
		c0.8-1.2,1.5-2.5,1.9-4c0.4-1.4,0.4-2.8,0.4-4.3v-8.3v-5.8c0-1.6,0.1-3.2,0.7-4.7c0.6-1.4,1.7-2.5,2.8-3.6h9.9l7.6,9.2l-9.6,7.1
		v0.5c2.1,0.8,4.2,1.7,6.2,2.8c2.9,1.8,4.3,3.9,4.3,3.9v15.5l-5.9,2.7c-1.4-1.2-1.8-1.6-4.6-3.2c-2.8-1.6-9.4-2.8-12.8-2.6l-3.7,0.5
		c-7.6,1.6-14.5,6.7-18.4,13.5h1.7c1.6-1.5,3.4-2.8,5.4-3.7c2.2-1,4.7-1.6,7.1-1.8c5.6-0.5,11.4,0.8,16.4,3.4l24.1-12.4V30.3
		c-1.7-1.4-3.4-2.6-5.3-3.6C417.1,26,415.6,25.3,414,24.7z"/>
	<path class="st0" d="M456.2,27.4l8.6,6.9v20.7l-8.7-5.8V31.4v-0.2l-2.8-2.1l0,0l-7.6-5.8l-16.2,9.3c0,6.2,0,20,0,20l10.5,8.1
		l7.2-4.4l-8.4-6.9V28.8l8.3,5.5v18.4l2.7,1.9h0c2.4,1.8,6,4.3,8.1,5.9l15.9-9.7V31.3l-10.4-7.9L456.2,27.4z"/>
	<path class="st0" d="M176.8,13.3c-1.9-2.5-4.3-4.6-7.3-5.8c-2.8-1.2-6.1-1.3-9.1-1.3h-19c-0.5,0-1.1,0-1.7-0.1
		c-0.6-0.1-1.2-0.3-1.6-0.5c-0.5-0.3-1-0.7-1.3-1.1c-0.4-0.5-0.6-1-0.7-1.6l-1.6-0.1c-0.4,1.9-0.7,3.8-0.7,5.8
		c0,0.9,0.1,1.9,0.4,2.8c0.2,0.9,0.7,1.8,1.3,2.5c0.4,0.5,1,0.9,1.7,1.1c0.6,0.3,1.3,0.3,2,0.3h11.9l-6.4,3.8
		c-1.3,0.8-2.7,1.9-3.6,3.2c-0.4,0.7-0.7,1.5-0.9,2.3c-0.1,0.7-0.1,1.6-0.1,2.4l-0.1,16.3c-0.2,1.9-0.8,3.9-2,5.5
		c-0.7,0.8-1.5,1.6-2.4,2.1l0.7,1.8c4.5-1.1,9.1-3.6,11.7-7.3c0.8-1.2,1.5-2.5,1.9-4c0.4-1.4,0.4-2.8,0.4-4.3v-7.6v-5.8
		c0-1.6,0.1-3.2,0.7-4.7c0.6-1.4,1.7-2.5,2.8-3.6h4.3c1.6,0,3.4,0.1,5,0.7c1.7,0.6,3.3,1.7,4.5,3.1c2.8,3.3,4,8.5,4,12.6
		c0.1,3.9-0.1,7.7-0.7,11.6c-0.7,4.1-1.9,8.2-3.4,12c-5.5-4.3-13.3-6.5-20.1-5.2c-8.6,1.7-12.4,6.7-17,13.8h2.1
		c3.9-4.4,7.6-6,13.3-5.8c4.4,0.1,8.8,1.6,12.4,4.2l18.7-10.3c1.2-2.5,2.2-5.2,3.1-7.9c1.4-5,2-10.2,1.8-15.4
		C181.2,23.2,180,17.7,176.8,13.3z"/>
	<path class="st0" d="M209.5,30.9L198,23.5l-8.2,4.3c-0.9,0.4-1.7,0.9-2.5,1.6c-0.7,0.6-1.3,1.3-1.6,2.2c-0.4,0.8-0.6,1.8-0.5,2.7
		c0.1,1,0.4,1.9,0.9,2.8c1,1.6,2.7,2.7,4.4,3.5c0.4,0.1,0.7,0.4,1,0.5c-1.7,0.9-3.4,2-4.9,3.3c-1,0.9-2,2-2.8,3.2
		c-0.7,1.2-1.2,2.5-1.3,4c-0.1,2.2,0.7,4.4,2.1,6.1c1.9,2.4,4.9,3.9,7.9,4.3l7.9-5.8l5.7,5.8l7.9-5.5l-4.6-4.5V30.9z M200.2,55.2
		c-0.8,0.2-1.6,0.3-2.5,0.1c-1-0.2-2.1-0.7-2.9-1.5c-0.8-0.7-1.4-1.6-1.9-2.5c-1-2-1.6-4.3-1.2-6.6c0.1-1.1,0.6-2.2,1.2-3.2
		c1,0.3,1.9,0.7,2.9,1c1.5,0.4,2.9,0.8,4.4,1.3C200.2,47.6,200.2,51.4,200.2,55.2z M200.2,41.6c-1.3-0.3-2.7-0.6-4-1
		c-0.9-0.3-1.8-0.6-2.7-0.9c-0.5-0.2-1-0.4-1.5-0.7c-1.3-0.7-2.6-1.5-3.6-2.6c-0.7-0.8-1.1-1.8-1.1-2.8c0-0.7,0.2-1.4,0.6-2.1
		c0.4-0.7,0.8-1.2,1.4-1.6c0.4-0.4,1-0.7,1.6-0.9l9.4,5.8C200.2,36.9,200.2,39.3,200.2,41.6z"/>
	<path class="st0" d="M241.5,23.1c-0.7,1.1-1.8,2.1-3.9,2.1c-1.8,0-3-1-3.7-2.1h-0.8L228,29l-5.5-5.9l-7.8,5.5l4.2,4.3v19.7
		l-2.1,2.2l9.3,7.2l11.1-8.1l-1.4-1.6l-4,2.7l-2.9-2.3V30.4c1,1,2.3,1.9,3.7,2.5c0.9,0.4,1.8,0.7,2.8,0.7c1,0,1.9-0.2,2.8-0.6
		c1.1-0.5,2-1.3,2.7-2.4c0.7-1,1.1-2.2,1.4-3.4c0.4-1.3,0.7-2.7,0.8-4.1H241.5z"/>
	<path class="st0" d="M280.5,52.9l-3.2,2.2l-14.7-21.8l0.7-1.5c1,1,2.4,1.8,3.7,2.2c1.1,0.4,2.4,0.4,3.6,0.3
		c1.2-0.1,2.3-0.6,3.3-1.3c1-0.7,1.9-1.7,2.6-2.8c0.7-1,1.1-2.3,1.5-3.5c0.3-1,0.5-2.1,0.7-3.1h-1.4c-0.4,0.8-1.1,1.6-1.9,2.1
		s-1.7,0.7-2.7,0.7c-1,0-2-0.1-2.9-0.7c-0.9-0.5-1.6-1.3-2.1-2.2h-0.7l-11.1,17.2l14.7,21.5l11.5-7.6L280.5,52.9z"/>
	<path class="st0" d="M255,4.1h-1.4l-12.2,8.6l3.5,3.9c0.1,0.4,0.1,0.7,0.1,1.1v34.1l-2.5,1.6l9.3,8.1l7.9-5.3l-4.7-3.7V4.1z"/>
	<path class="st0" d="M515.6,52.9l-3.2,2.2l-14.7-21.8l0.7-1.5c1,1,2.4,1.8,3.7,2.2c1.1,0.4,2.4,0.4,3.6,0.3
		c1.2-0.1,2.3-0.6,3.3-1.3c1-0.7,1.9-1.7,2.6-2.8c0.7-1,1.1-2.3,1.5-3.5c0.3-1,0.5-2.1,0.7-3.1h-1.4c-0.4,0.8-1.1,1.6-1.9,2.1
		s-1.7,0.7-2.7,0.7c-1,0-2-0.1-2.9-0.7c-0.9-0.5-1.6-1.3-2.1-2.2H502l-11.1,17.2l14.7,21.5l11.5-7.6L515.6,52.9z"/>
	<path class="st0" d="M490.2,4.1h-1.4l-12.2,8.6l3.5,3.9c0.1,0.4,0.1,0.7,0.1,1.1v34.1l-2.5,1.6l9.3,8.1l7.9-5.3l-4.7-3.7V4.1z"/>
	<path class="st0" d="M46.9,40.3c-1.3,3.3-3.4,6.3-6.2,8.6c-0.5,0.4-1,0.8-1.5,1.1l-2.1,1.2c-1.9,1-4,1.6-6.1,1.9
		c-3.5,0.4-7.2-0.2-10.3-2c0,0,0,0,0,0l9.5-6.9l0-25.9l-9.5,6.4v26.3c-1.3-0.7-2.4-1.6-3.4-2.6L16,46.9c-1.2-1.6-2.2-3.3-2.8-5.2
		c-1.2-3.8-1.2-8,0-11.8l1-2.6c1.6-3.5,4.2-6.6,7.4-8.8l-0.7-1.1c-4.2,0.7-8.1,2.7-11.1,5.7c-3,3-5.1,7-5.8,11.2
		c-1.2,6.8,1,14.1,5.6,19.2c4.6,5.1,11.5,8,18.3,7.8c3.7-0.1,7.4-1.2,10.6-3.1c3.2-1.9,5.9-4.8,7.6-8.1c1.6-3,2.3-6.5,2.2-9.9H46.9z
		"/>
	<path class="st0" d="M71.9,24l-9,8.4V3.2h-1.4L50,13.5l2.6,2.4c0.1,0.4,0.1,0.8,0.1,1.1v34.8l-2.5,1.6l9.5,8.2l8.1-5.4l-4.8-3.7
		V34.7l3.9-3.7l4.4,3.6v17.6c0,3-0.1,6-1,8.9c-0.6,1.7-1.5,3.4-2.8,4.7c-1.2,1.1-2.7,2-4.3,2.3v1.8c3,0.4,6,0,8.8-1.2
		c2.6-1.2,4.9-3.1,6.4-5.5c1.1-1.7,1.7-3.6,2.1-5.6c0.3-2,0.4-4,0.4-6l0-20.1L71.9,24z"/>
	<path class="st0" d="M103.5,54.6l-8.8-6v-3.2l15.8-9.8v-0.4L103.2,24l-17.6,9.1l0,20.2l12,9l15.1-12.3l-1.1-1.8L103.5,54.6z
		 M94.7,30.5l1.4-0.8l6.3,9.1l-7.7,4.9V30.5z"/>
	<polygon class="st0" points="284.3,48.5 290.8,37.2 277.8,37.2 	"/>
	<path class="st0" d="M313.1,11.8c3.7,3.7,7,4.9,11.3,5.5l10.8-8.8l-1.8-1.6l-2.1,1.6c-6.2,0-12.6-2.9-14.3-5.7l-14.5,12.8v10.2
		h-3.2l-7,5.9v1.6c10.6,0,1.6,0,10.2,0v14.9c0,4.9-0.1,7.3-0.7,8.8c-2-0.7-4.3-1.4-7.6-1c-8.5,1.1-14.4,8.2-16.5,12.7h1.9
		c0,0,2.4-4.4,9.5-4.4c2.5,0,4.6,0.8,6.1,1.9c0,0,13.8-12.5,18-17.6V33.4h6.1L329,27v-1.5h-15.9V11.8z"/>
	<polygon class="st0" points="346.1,55.1 343.7,52.5 343.7,29.9 337.9,23.1 330.4,28.2 334.3,32.8 334.3,52.5 331.9,54.2 
		340.5,61.9 351.2,54.3 349.4,52.9 	"/>
	
		<rect x="334.2" y="9.8" transform="matrix(0.7354 -0.6776 0.6776 0.7354 80.0918 232.8787)" class="st0" width="8.2" height="8.2"/>
	<polygon class="st0" points="396,21 396,47.8 403.9,41.1 403.9,16 	"/>
	<path class="st0" d="M4.6,18.7c1.3-1.2,3.8-2.4,7.1-2.5H36c1.5,0,2.9,0,4.3-0.4c1.4-0.4,2.8-1,4-1.9c3.7-2.6,6.2-7.3,7.3-11.7
		l-1.8-0.7c-0.5,0.9-1.3,1.7-2.1,2.4c-1.3,1.2-3.8,2.4-7.1,2.5H16.4c-1.5,0-2.9,0-4.3,0.4c-1.4,0.4-2.8,1-4,1.9
		c-3.7,2.6-6.2,7.3-7.3,11.7l1.8,0.7C3.1,20.2,3.8,19.4,4.6,18.7z"/>
</g>
</svg>
